<?xml version="1.0" encoding="UTF-8" standalone="no"?>
<svg
   xmlns:dc="http://purl.org/dc/elements/1.1/"
   xmlns:cc="http://creativecommons.org/ns#"
   xmlns:rdf="http://www.w3.org/1999/02/22-rdf-syntax-ns#"
   xmlns:svg="http://www.w3.org/2000/svg"
   xmlns="http://www.w3.org/2000/svg"
   xmlns:xlink="http://www.w3.org/1999/xlink"
   xmlns:sodipodi="http://sodipodi.sourceforge.net/DTD/sodipodi-0.dtd"
   xmlns:inkscape="http://www.inkscape.org/namespaces/inkscape"
   version="1.0"
   width="600"
   height="600"
   id="svg3139"
   inkscape:version="0.48.3.1 r9886"
   sodipodi:docname="Warning.svg"
   inkscape:export-filename="/srv/github/lliurex-ltsp-admin/install_files/usr/share/lliurex-ltsp-admin/webgui/images/warning.png"
   inkscape:export-xdpi="9"
   inkscape:export-ydpi="9">
  <metadata
     id="metadata3186">
    <rdf:RDF>
      <cc:Work
         rdf:about="">
        <dc:format>image/svg+xml</dc:format>
        <dc:type
           rdf:resource="http://purl.org/dc/dcmitype/StillImage" />
        <dc:title></dc:title>
      </cc:Work>
    </rdf:RDF>
  </metadata>
  <sodipodi:namedview
     pagecolor="#ffffff"
     bordercolor="#666666"
     borderopacity="1"
     objecttolerance="10"
     gridtolerance="10"
     guidetolerance="10"
     inkscape:pageopacity="0"
     inkscape:pageshadow="2"
     inkscape:window-width="1039"
     inkscape:window-height="859"
     id="namedview3184"
     showgrid="false"
     inkscape:zoom="0.472"
     inkscape:cx="300"
     inkscape:cy="250"
     inkscape:window-x="0"
     inkscape:window-y="0"
     inkscape:window-maximized="0"
     inkscape:current-layer="svg3139" />
  <defs
     id="defs3141">
    <linearGradient
       id="g1"
       x1="41.194874"
       y1="616.47717"
       x2="118.93135"
       y2="527.55511"
       gradientUnits="userSpaceOnUse"
       gradientTransform="matrix(4.556763,0,0,-4.315033,37.49756,2758.519)">
      <stop
         offset="0"
         stop-color="#b00"
         id="stop3144" />
      <stop
         offset="1"
         stop-color="#5f0000"
         id="stop3146" />
    </linearGradient>
    <linearGradient
       id="g2"
       x1="530.80951"
       y1="486.63101"
       x2="174.80548"
       y2="211.22995"
       gradientUnits="userSpaceOnUse"
       gradientTransform="matrix(0.86911602,0,0,0.86911602,45.104344,11.323609)">
      <stop
         offset="0"
         stop-color="#9a0000"
         id="stop3149"
         style="stop-color:#ec9400;stop-opacity:1;" />
      <stop
         offset="1"
         stop-color="#f22803"
         id="stop3151"
         style="stop-color:#ffdf5b;stop-opacity:1;" />
    </linearGradient>
    <linearGradient
       id="g3"
       x1="187.87357"
       y1="224.59892"
       x2="581.83746"
       y2="483.10001"
       gradientUnits="userSpaceOnUse"
       gradientTransform="matrix(0.86083559,0,0,0.89390497,44.681172,4.2570045)"
       xlink:href="#g2">
      <stop
         offset="0"
         stop-color="#ec6c60"
         id="stop3154"
         style="stop-color:#ecb860;stop-opacity:1;" />
      <stop
         offset="1"
         stop-color="#d11412"
         id="stop3156"
         style="stop-color:#b68710;stop-opacity:1;" />
    </linearGradient>
    <linearGradient
       id="g4"
       x1="250.39845"
       y1="101.53633"
       x2="412.0943"
       y2="264.54187"
       gradientUnits="userSpaceOnUse"
       gradientTransform="matrix(0.86083556,0,0,0.89390494,44.681169,4.2570085)">
      <stop
         offset="0"
         stop-color="#ffd9d9"
         id="stop3159"
         style="stop-color:#fffbd9;stop-opacity:1;" />
      <stop
         offset="1"
         stop-color="#ff2727"
         id="stop3161"
         style="stop-color:#ffcb27;stop-opacity:1;" />
    </linearGradient>
    <radialGradient
       id="g5"
       cx="295.47125"
       cy="186.09634"
       r="179.55"
       gradientUnits="userSpaceOnUse"
       gradientTransform="matrix(0,1.4258216,-0.78595947,-2.0168297e-5,449.15289,-232.98934)">
      <stop
         offset="0"
         stop-color="#fff"
         id="stop3164" />
      <stop
         offset="0.5"
         stop-color="#fff"
         id="stop3166" />
      <stop
         offset="1"
         stop-color="#d5d5d5"
         id="stop3168" />
    </radialGradient>
    <linearGradient
       inkscape:collect="always"
       xlink:href="#g2"
       id="linearGradient3956"
       gradientUnits="userSpaceOnUse"
       gradientTransform="matrix(0.86083556,0,0,0.89390494,44.681169,4.2570085)"
       x1="530.80951"
       y1="486.63101"
       x2="174.80548"
       y2="211.22995" />
    <filter
       inkscape:collect="always"
       id="filter4032"
       x="-0.11751077"
       width="1.2350215"
       y="-1.4321625"
       height="3.864325"
       color-interpolation-filters="sRGB">
      <feGaussianBlur
         inkscape:collect="always"
         stdDeviation="20.228284"
         id="feGaussianBlur4034" />
    </filter>
  </defs>
  <path
     sodipodi:type="arc"
     style="opacity:0.7;fill:#000000;fill-opacity:1;stroke:#000000;stroke-width:0.88700002;stroke-miterlimit:4;stroke-opacity:1;stroke-dasharray:none;filter:url(#filter4032)"
     id="path3958"
     sodipodi:cx="306.14407"
     sodipodi:cy="444.91525"
     sodipodi:rx="206.56779"
     sodipodi:ry="16.949152"
     d="m 512.71187,444.91525 a 206.56779,16.949152 0 1 1 -413.135591,0 206.56779,16.949152 0 1 1 413.135591,0 z"
     transform="matrix(1.1616595,0,0,1.1616595,-54.804646,1.415328)" />
  <path
     d="m 302.93173,24.727429 c -1.46341,0 -2.84074,0.804507 -3.61549,2.055974 L 182.67304,225.67721 66.029882,424.57093 c -0.774757,1.25147 -0.774757,2.86048 0,4.11194 0.774746,1.25146 2.152079,2.05597 3.615503,2.05597 l 466.572665,0 c 1.46342,0 2.84075,-0.80451 3.61558,-2.05597 0.77475,-1.25146 0.77475,-2.86047 0,-4.11194 L 306.54721,26.783403 c -0.77474,-1.251467 -2.15207,-2.055974 -3.61548,-2.055974 z"
     style="fill:url(#linearGradient3956)"
     id="path3174"
     inkscape:connector-curvature="0" />
  <path
     d="m 302.89945,24.727429 c -1.46341,0 -2.84083,0.804507 -3.61557,2.055974 L 182.64076,225.67721 65.997576,424.57093 c -0.774757,1.25147 -0.774757,2.86048 0,4.11194 0.774746,1.25146 2.152091,2.05597 3.615503,2.05597 l 466.572691,0 c 1.46341,0 2.84075,-0.80451 3.61549,-2.05597 0.77475,-1.25146 0.77475,-2.86047 0,-4.11194 L 306.51494,26.783403 c -0.77475,-1.251467 -2.15207,-2.055974 -3.61549,-2.055974 z"
     style="fill:none;stroke:url(#g3);stroke-width:10.52650738;stroke-linejoin:round"
     id="path3176"
     inkscape:connector-curvature="0" />
  <path
     d="m 302.99361,31.891116 c -1.38603,0.07109 -2.67799,0.874357 -3.41643,2.067161 L 182.93397,232.85206 166.68572,260.56313 c 39.57505,24.66883 85.87929,38.8848 135.36636,38.8848 50.1898,0 97.11885,-14.59803 137.06111,-39.91837 L 306.81353,33.958277 c -0.77474,-1.251479 -2.14131,-2.067161 -3.60472,-2.067161 -0.0687,0 -0.14705,-0.0035 -0.2152,0 z"
     style="fill:url(#g4);fill-opacity:1;stroke-width:10;stroke-linejoin:round"
     id="path3178"
     inkscape:connector-curvature="0" />
  <path
     d="M 291.05228,130.83393 150.13347,371.02618 c -2.41032,4.20142 -2.41032,9.38603 0,13.49797 2.41042,4.20133 6.97283,6.79373 11.87956,6.79373 l 281.75151,0 c 4.90673,0 9.46921,-2.5924 11.87954,-6.79373 2.41032,-4.20133 2.41032,-9.29655 0,-13.49797 L 314.81137,130.83393 c -2.41033,-4.20133 -6.97281,-6.79363 -11.87955,-6.79363 -4.90673,0 -9.46922,2.5923 -11.87954,6.79363 z"
     style="fill:url(#g5)"
     id="path3180"
     inkscape:connector-curvature="0" />
  <path
     d="m 295.50205,382.79529 c -8.07359,-4.01537 -14.22216,-13.67032 -14.22216,-22.33268 0,-16.12901 16.23059,-28.27878 31.5869,-23.64503 10.35963,3.12613 17.40079,12.83406 17.31452,23.87232 -0.0736,9.37664 -3.98188,16.28405 -11.95935,21.13691 -6.10643,3.71452 -16.32304,4.14992 -22.71991,0.96848 z m 1.835,-63.68847 c -1.00924,-0.57591 -3.3862,-2.58122 -5.28181,-4.45617 -6.62347,-6.55099 -6.61522,-6.49334 -10.93274,-76.58874 -3.83804,-62.30982 -3.86977,-63.27803 -2.22291,-67.75385 3.70489,-10.07006 11.96007,-14.47959 25.70547,-13.73076 8.73715,0.47611 15.46607,3.66229 19.8399,9.39461 3.736,4.89624 4.54823,7.66416 4.54481,15.48643 -0.003,8.50024 -5.23277,112.741 -5.97604,119.12904 -0.97319,8.36643 -5.67726,15.15596 -12.57207,18.14541 -3.93991,1.70846 -10.44105,1.89404 -13.10461,0.37403 z"
     id="path3182"
     inkscape:connector-curvature="0" />
</svg>
